# xmcd CD database file
#
# Track frame offsets:
#	225
#	11440
#	22624
#	38326
#	48714
#	58860
#	69230
#	84129
#	96613
#	108734
#	120340
#	130998
#	144442
#	157054
#	170454
#	183043
#
# Disc length: 2648 seconds
#
# Revision: 0
# Processed by: cddbd v1.5.2PL0 Copyright (c) Steve Scherf et al.
# Submitted via: CDex 1.70beta2
#
DISCID=c80a5510
DTITLE=Foundation Brass - Saints Bound For Heaven
DYEAR=2002
DGENRE=Brass Ensemble
TTITLE0=Ceremonial Piece on Guide Me, O Thou Great Jehova
TTITLE1=He Lives
TTITLE2=The Haven of Rest
TTITLE3=Brethren, We Have Met to Worship
TTITLE4=Jesus Shall Reign
TTITLE5=Come, Ye Sinners
TTITLE6=Ho Firm a Foundation
TTITLE7=Glorious Things of Thee Are Spoken
TTITLE8=Alas, and Did My Savior Bleed
TTITLE9=Saints Bound for Heaven
TTITLE10=Crown Him with Many Crowns
TTITLE11=Savior, Like a Shepherd Lead Us
TTITLE12=And Can It Be That I Should Gain ?
TTITLE13=Come, Thou Fount
TTITLE14=Salvation Medley
TTITLE15=O for a Thounsands Tongues to Sing
EXTD=YEAR: 2002
EXTT0=
EXTT1=
EXTT2=
EXTT3=
EXTT4=
EXTT5=
EXTT6=
EXTT7=
EXTT8=
EXTT9=
EXTT10=
EXTT11=
EXTT12=
EXTT13=
EXTT14=
EXTT15=
PLAYORDER=
